<?xml version="1.0" encoding="UTF-8"?>
<svg width="1024" height="1024" viewBox="0 0 300 300" xmlns="http://www.w3.org/2000/svg" xmlns:xlink="http://www.w3.org/1999/xlink">
  <!--
    Square app icon derived from the original 300x150 artwork.
    The original artwork is centered vertically by translating it down by 75 units
    so it sits in the middle of this 300x300 square viewBox. The file remains
    fully scalable and suitable for generating other raster sizes.
  -->
  <defs>
    <linearGradient id="borderGradient" x1="0%" y1="0%" x2="100%" y2="0%">
      <stop offset="0%" stop-color="#b73393" />
      <stop offset="20%" stop-color="#9f39e5" />
      <stop offset="40%" stop-color="#0fa3a3" />
      <stop offset="60%" stop-color="#02b833" />
      <stop offset="80%" stop-color="#ffc800" />
      <stop offset="100%" stop-color="#ff6e1b" />
    </linearGradient>

    <!-- Clip path for toggle knob (kept from original) -->
    <clipPath id="innerClip">
      <rect x="15" y="15" width="270" height="120" rx="60" ry="60" />
    </clipPath>
  </defs>

  <!-- Place the original 300x150 artwork centered vertically inside the 300x300 square -->
  <g transform="translate(0,75)">
    <!-- Outer gradient border -->
    <rect x="3" y="3" width="294" height="144" rx="74" ry="74" fill="url(#borderGradient)" />

    <!-- Inner white body -->
    <rect x="15" y="15" width="270" height="120" rx="60" ry="60" fill="white" />

    <!-- Left horizontal line (off indicator) -->
    <rect x="50" y="65" width="60" height="20" rx="10" ry="10" fill="#071B2F" />

    <!-- Right dark circle (toggle knob) -->
    <circle cx="225" cy="75" r="60" fill="#071B2F" clip-path="url(#innerClip)" />

    <!-- 232.svg icon placed centered inside the knob; scaled to ~80x80 and translated to center at (225,75) -->
    <g transform="translate(189.16 39.16) scale(0.14)">
      <!-- Font Awesome icon (fill white) -->
      <path fill="#FFFFFF" d="M288 0c0-17.7-14.3-32-32-32S224-17.7 224 0l0 256c0 17.7 14.3 32 32 32s32-14.3 32-32L288 0zM146.3 98.4c14.5-10.1 18-30.1 7.9-44.6s-30.1-18-44.6-7.9C43.4 92.1 0 169 0 256 0 397.4 114.6 512 256 512S512 397.4 512 256c0-87-43.4-163.9-109.7-210.1-14.5-10.1-34.4-6.6-44.6 7.9s-6.6 34.4 7.9 44.6c49.8 34.8 82.3 92.4 82.3 157.6 0 106-86 192-192 192S64 362 64 256c0-65.2 32.5-122.9 82.3-157.6z"/>
    </g>
  </g>
</svg>
