<svg width="150" height="150" viewBox="0 0 150 150" xmlns="http://www.w3.org/2000/svg">
  <!-- Shortcut overlay: only the restart knob and symbol -->
  <!-- Keep minimal defs: no gradient required -->
  <defs>
    <clipPath id="innerClip">
      <rect x="15" y="15" width="120" height="120" rx="60" ry="60" />
    </clipPath>
  </defs>

  <!-- Dark circle (knob) centered in 150x150 - darker, less bluish -->
  <circle cx="75" cy="75" r="45" fill="#252529ff" clip-path="url(#innerClip)" />

  <!-- Reboot symbol centered inside the knob. Increased scale and stroke for visibility. -->
  <g transform="translate(75 75) scale(1.4) translate(-25 -25)">
    <path transform="rotate(90 25 25)" fill="#FFFFFF" stroke="#FFFFFF" stroke-width="2.5" stroke-linecap="round" stroke-linejoin="round" d="M 25 2 A 2.0002 2.0002 0 1 0 25 6 C 35.517124 6 44 14.482876 44 25 C 44 35.517124 35.517124 44 25 44 C 14.482876 44 6 35.517124 6 25 C 6 19.524201 8.3080175 14.608106 12 11.144531 L 12 15 A 2.0002 2.0002 0 1 0 16 15 L 16 4 L 5 4 A 2.0002 2.0002 0 1 0 5 8 L 9.5253906 8 C 4.9067015 12.20948 2 18.272325 2 25 C 2 37.678876 12.321124 48 25 48 C 37.678876 48 48 37.678876 48 25 C 48 12.321124 37.678876 2 25 2 z"/>
  </g>

</svg>
