<svg xmlns="http://www.w3.org/2000/svg" xml:space="preserve" id="Layer_1" x="0" y="0" viewBox="0 0 200 200"><style>.st1{fill:#fff}</style><g id="g18" transform="translate(5 4.789)scale(.21142)"><g id="g8"><circle id="circle4" cx="449.4" cy="450.4" r="473" style="fill:#48b9c7"/><path id="rect6" d="M236.4 702.4h426c20.4 0 37 16.6 37 37v3c0 20.4-16.6 37-37 37h-426c-20.4 0-37-16.6-37-37v-3c0-20.5 16.5-37 37-37" class="st1"/></g><path id="path10" d="M512.4 333.4c-24 51-64 92-120 112l48 125c9 23 17 47 10 69s-39 29-62 5c-44-47-192-343-203-365s-23-40-23-62c1-33 52-67 77-84s74-40 117-41 61 9 86 25c38 25 65 64 75 109s7 80-5 105m-113-54c-9-31-28-61-53-81-5-4-11-9-18-11-46-15-26 62-19 82s26 62 47 83c5 5 10 9 16 10s18-5 23-13 6-14 6-22c2.3-16 1.6-32.3-2-48" class="st1"/><g id="g16"><path id="path12" d="M601.4 640.4c-2 9-7 17-15 22s-27 5-38-4-13-24-10-36 13-25 27-29c29-9 42 23 36 47" class="st1"/><path id="path14" d="M583.4 549.4c-18-7-12-103 5-220 5-32 13-48 22-56s36-12 52-9c18.4 2.7 35.5 11.1 49 24 12 11 13 23 9 38s-18 47-29 70l-28 53c-54 96-65 106-80 100" class="st1"/></g></g></svg>