<svg xmlns="http://www.w3.org/2000/svg" fill="none" viewBox="2 2 28 28"><path fill="#e95420" d="M30 16c0 7.728-6.265 14-14 14S2 23.728 2 16C2 8.265 8.265 2 16 2s14 6.265 14 14"/><path fill="#fff" d="M6.822 14.156c-1.01 0-1.822.83-1.822 1.847s.819 1.848 1.822 1.848c1.002 0 1.821-.83 1.821-1.848a1.834 1.834 0 0 0-1.821-1.847m13.01 8.392a1.867 1.867 0 0 0-.669 2.525 1.807 1.807 0 0 0 2.49.678 1.867 1.867 0 0 0 .669-2.525c-.512-.878-1.624-1.183-2.49-.678m-9.054-6.544a5.4 5.4 0 0 1 2.265-4.414l-1.33-2.263a8.06 8.06 0 0 0-3.275 4.663 2.62 2.62 0 0 1 0 4.027 8.03 8.03 0 0 0 3.275 4.663l1.33-2.263a5.4 5.4 0 0 1-2.264-4.414m5.322-5.397c2.783 0 5.062 2.159 5.3 4.92l2.6-.042a8.04 8.04 0 0 0-2.354-5.203 2.54 2.54 0 0 1-2.183-.18 2.6 2.6 0 0 1-1.248-1.833 8 8 0 0 0-2.115-.29c-1.262 0-2.45.297-3.507.83l1.27 2.296a5.25 5.25 0 0 1 2.237-.498m0 10.793a5.3 5.3 0 0 1-2.245-.498l-1.269 2.296a7.8 7.8 0 0 0 3.507.83c.73 0 1.44-.103 2.115-.29a2.59 2.59 0 0 1 1.248-1.833 2.52 2.52 0 0 1 2.184-.18 8.07 8.07 0 0 0 2.353-5.203l-2.6-.041c-.231 2.753-2.51 4.919-5.293 4.919m3.725-11.948a1.807 1.807 0 0 0 2.49-.678 1.86 1.86 0 0 0-.669-2.525 1.807 1.807 0 0 0-2.49.678 1.873 1.873 0 0 0 .669 2.525"/></svg>