<svg xmlns="http://www.w3.org/2000/svg" viewBox="0 0 512 512" width="512" height="512">
  <!-- Modern squarcle background with gradient -->
  <defs>
    <linearGradient id="appBg" x1="0%" y1="0%" x2="100%" y2="100%">
      <stop offset="0%" stop-color="#b73393" />
      <stop offset="35%" stop-color="#9f39e5" />
      <stop offset="65%" stop-color="#006adb" />
      <stop offset="100%" stop-color="#02b833" />
    </linearGradient>

    <!-- reuse a soft inner shadow for depth -->
    <filter id="shadow" x="-20%" y="-20%" width="140%" height="140%">
      <feDropShadow dx="0" dy="6" stdDeviation="18" flood-color="#000" flood-opacity="0.25" />
    </filter>

    <!-- switch gradient used by the inner switch border -->
    <linearGradient id="borderGradient" x1="0%" y1="0%" x2="100%" y2="0%">
      <stop offset="0%" stop-color="#b73393" />
      <stop offset="20%" stop-color="#9f39e5" />
      <stop offset="40%" stop-color="#006adb" />
      <stop offset="60%" stop-color="#02b833" />
      <stop offset="80%" stop-color="#ffc800" />
      <stop offset="100%" stop-color="#ff6e1b" />
    </linearGradient>

    <!-- Global gradient in user space so different shapes sample the same gradient alignment -->
    <linearGradient id="borderGradientGlobal" gradientUnits="userSpaceOnUse" x1="79.6" y1="256" x2="432.4" y2="256">
      <stop offset="0%" stop-color="#b73393" />
      <stop offset="20%" stop-color="#9f39e5" />
      <stop offset="40%" stop-color="#006adb" />
      <stop offset="60%" stop-color="#02b833" />
      <stop offset="80%" stop-color="#ffc800" />
      <stop offset="100%" stop-color="#ff6e1b" />
    </linearGradient>

    <!-- Clip path for the switch knob -->
    <clipPath id="innerClip">
      <rect x="15" y="15" width="270" height="120" rx="60" ry="60" />
    </clipPath>
  </defs>

  <!-- Squarcle background (rounded rect with large rx for squircle look) -->
  <rect x="16" y="16" width="480" height="480" rx="96" ry="96" fill="#141414" filter="url(#shadow)" />

  <!-- subtle white inset removed (transparent) -->
  <rect x="36" y="36" width="440" height="440" rx="76" ry="76" fill="none" />

  <!-- Center the switch graphic by translating the original 300x150 artwork to the center of 512 canvas -->
  <!-- calculation: center (256,256) then shift by half of original dims * scale; using scale 1.2 -> translate(256 256) scale(1.2) translate(-150 -75) --> keeps it centered -->
  <g transform="translate(256 256) scale(1.2) translate(-150 -75)">
    <!-- Outer gradient border (slightly larger) -->
  <rect x="3" y="3" width="294" height="144" rx="74" ry="74" fill="url(#borderGradientGlobal)" />

  <!-- Inner body filled with app background color to avoid showing the outer gradient through -->
  <rect x="15" y="15" width="270" height="120" rx="60" ry="60" fill="#141414" />

  <!-- Left horizontal line (off indicator) uses border gradient -->
  <rect x="50" y="65" width="60" height="20" rx="10" ry="10" fill="url(#borderGradientGlobal)" />

  <!-- Right knob now uses a darker blue to better match the design -->
  <circle cx="225" cy="75" r="60" fill="#1c2025ff" clip-path="url(#innerClip)" />

    <!-- Reboot symbol (rotated & thickened white) centered in knob -->
    <g transform="translate(225 75) scale(1.3) translate(-25 -25)">
      <path transform="rotate(90 25 25)" fill="#FFFFFF" stroke="#FFFFFF" stroke-width="2.5" stroke-linecap="round" stroke-linejoin="round" d="M 25 2 A 2.0002 2.0002 0 1 0 25 6 C 35.517124 6 44 14.482876 44 25 C 44 35.517124 35.517124 44 25 44 C 14.482876 44 6 35.517124 6 25 C 6 19.524201 8.3080175 14.608106 12 11.144531 L 12 15 A 2.0002 2.0002 0 1 0 16 15 L 16 4 L 5 4 A 2.0002 2.0002 0 1 0 5 8 L 9.5253906 8 C 4.9067015 12.20948 2 18.272325 2 25 C 2 37.678876 12.321124 48 25 48 C 37.678876 48 48 37.678876 48 25 C 48 12.321124 37.678876 2 25 2 z"/>
    </g>
  </g>
</svg>
